name processed_emg_signals
nRows=81
nColumns=7
 
endheader
time	LGLTMED	LRF	LADDLONG	LBF	LTA	LGM
1.1251999999999993	-0.0096131861209869	-0.0074769230559468	0.0111390836536884	0.0129701662808656	-0.0096131861209869	0.0340276174247264
1.1351999999999993	0.0086976401507854	-0.046540018171072	0.0132753467187285	-0.0056458404287695	0.0108339032158255	-0.0028992164880037
1.145199999999999	0.0199893154203891	-0.0114442687481641	0.0224307589232921	-0.0050354795530438	-0.0132753513753414	0.0050354748964309
1.1551999999999991	-0.0035095773637294	0.0291447304189205	0.0737010762095451	0.0190737750381231	-0.0080872839316725	-0.0016784947365522
1.1651999999999991	-0.0340276211500167	-0.0099183665588498	-0.0572213344275951	0.0227359402924776	-0.0160219743847847	-0.0013733142986893
1.1751999999999991	0.0175478719174861	-0.0047302991151809	-0.1087968274950981	0.0044251140207052	-0.0209048613905906	0.0340276174247264
1.1851999999999991	-0.0080872839316725	-0.0166323371231555	-0.0474555604159832	-0.0138857122510671	0.0007629487663507	-0.0038147578015923
1.1951999999999992	0.0022888509556651	-0.026092929765582	0.0608834959566593	0.0093080010265111	-0.0245670266449451	0.0035095727071166
1.2051999999999992	-0.0114442687481641	0.0059510162100195	0.0386053249239921	0.0010681292042136	-0.0090028252452611	0.0086976401507854
1.2151999999999992	0.0355535186827182	-0.0383001491427421	0.012054624967277	0.0111390836536884	-0.0148012535646557	0.0068665575236082
1.2251999999999992	-0.0053406599909067	-0.028534373268485	-0.0184634178876876	0.012054624967277	0.0010681292042136	0.0090028205886483
1.2351999999999992	0.0123598054051399	0.0273136459290981	-0.0321965366601944	0.0004577683284878	-0.0135805318132042	0.0062561966478824
1.2451999999999992	0.0300602708011865	-0.0105287274345755	-0.0337224416434764	0.0138857075944542	-0.0010681338608264	0.0407415851950645
1.2551999999999992	-0.006866562180221	-0.0019836751744151	-0.0144960731267929	-0.0041199382394552	0.0202944967895746	0.0175478719174861
1.2651999999999992	-0.0050354795530438	0.0022888509556651	0.0404364056885242	-0.0016784947365522	-0.0181582383811473	0.0035095727071166
1.2751999999999992	0.0193789564073085	-0.048065923154354	0.0340276174247264	-0.0025940360501408	-0.0120546296238899	0.004730294458568
1.285199999999999	0.0126649858430027	-0.0099183665588498	-0.0221255831420421	0.0148012489080429	-0.030060276389122	-0.0090028252452611
1.295199999999999	-0.0004577729851007	-0.0144960731267929	-0.0062562013044953	0.0117494445294141	-0.0138857122510671	-0.0077821034938097
1.305199999999999	0.0074769183993339	-0.0022888556122779	-0.0013733142986893	0.0028992118313908	0.0068665575236082	0.0019836705178022
1.315199999999999	0.0123598054051399	-0.0257877483963966	0.0178530532866716	0.0053406553342938	-0.0337224416434764	0.0022888509556651
1.325199999999999	0.01449606847018	-0.0221255831420421	-0.0160219743847847	0.0065613770857453	0.1060502007603645	-0.0019836751744151
1.335199999999999	0.0123598054051399	-0.004425118677318	-0.0410467721521854	0.012054624967277	-0.1084916442632675	-0.0001525925472378
1.345199999999999	0.0209048576653003	-0.0035095773637294	-0.0590524151921272	0.0080872792750597	-0.009308005683124	0.009613181464374
1.355199999999999	0.0151064293459057	-0.0126649904996156	-0.0166323371231555	0.0077820988371968	0.0996414124965667	0.0038147531449794
1.365199999999999	-0.004425118677318	-0.0096131861209869	0.044403750449419	0.009613181464374	-0.1344319880008697	-0.027618832886219
1.375199999999999	0.0105287227779626	0.0016784900799393	0.041962306946516	0.0068665575236082	0.0706492662429809	0.0132753467187285
1.385199999999999	0.0080872792750597	0.0028992118313908	0.0285343676805496	-0.0041199382394552	-0.0041199382394552	0.0032043922692537
1.395199999999999	0.0099183619022369	-0.0544747114181518	0.0239566620439291	0.0114442640915513	-0.0022888556122779	0.0059510162100195
1.4051999999999991	0.0233463011682033	0.0300602708011865	-0.0221255831420421	0.0025940313935279	0.090791180729866	0.0148012489080429
1.4151999999999991	0.0178530532866716	-0.0297550950199365	-0.0508125461637973	0.0059510162100195	-0.0166323371231555	0.0187685936689376
1.4251999999999991	0.0196841359138488	0.0090028205886483	-0.0468451976776123	0.0053406553342938	0.0053406553342938	-0.0132753513753414
1.435199999999999	-0.0090028252452611	-0.0077821034938097	-0.0340276211500167	0.0010681292042136	-0.0028992164880037	0.0105287227779626
1.445199999999999	0.0041199335828423	-0.0001525925472378	-0.0212100427597761	0.0041199335828423	-0.1393148750066757	-0.0120546296238899
1.455199999999999	0.0148012489080429	-0.030060276389122	0.0083924597129225	0.0187685936689376	-0.022735945880413	0.0044251140207052
1.465199999999999	0.0196841359138488	-0.0019836751744151	0.0160219706594944	0.0068665575236082	-0.0694285482168197	0.0010681292042136
1.475199999999999	-0.0025940360501408	-0.0025940360501408	0.0401312261819839	0.0007629487663507	0.058136872947216	-0.0004577729851007
1.485199999999999	0.009613181464374	-0.0025940360501408	0.026398105546832	-0.0007629534229636	-0.0108339078724384	0.0041199335828423
1.495199999999999	0.0111390836536884	0.0190737750381231	-0.0288395546376705	0.0013733096420764	0.0456244722008705	-0.0004577729851007
1.505199999999999	0.0053406553342938	-0.0035095773637294	-0.0334172621369361	0.0077820988371968	-0.0270084701478481	0.009613181464374
1.515199999999999	0.0193789564073085	-0.0358587056398391	-0.0270084701478481	0.0215152185410261	-0.0132753513753414	0.0035095727071166
1.525199999999999	0.0056458357721567	-0.0120546296238899	-0.0248722080141305	0.034637976437807	-0.0090028252452611	0.0059510162100195
1.535199999999999	0.0035095727071166	-0.009308005683124	-0.0547798909246921	0.0035095727071166	-0.0190737806260585	0.0273136459290981
1.545199999999999	-0.0102235469967126	0.000152587890625	0.028839549049735	0.0074769183993339	-0.0053406599909067	0.0090028205886483
1.555199999999999	0.0129701662808656	-0.0096131861209869	0.0898756384849548	-0.0047302991151809	-0.0239566676318645	-0.0221255831420421
1.565199999999999	0.0010681292042136	-0.0041199382394552	0.0688181892037391	0.0059510162100195	0.0190737750381231	-0.0120546296238899
1.5751999999999988	0.0169375129044055	-0.0697337314486503	0.0172426924109458	0.0038147531449794	-0.0157167948782444	0.0132753467187285
1.5851999999999988	0.0044251140207052	-0.0129701709374785	-0.0489814616739749	0.0032043922692537	-0.1048294827342033	-0.0083924643695354
1.5951999999999988	0.0108339032158255	-0.011749449186027	-0.0404364094138145	-0.0059510208666324	0.0193789564073085	0.018158234655857
1.6051999999999988	0.0044251140207052	-0.0114442687481641	-0.028534373268485	0.0004577683284878	0.0178530532866716	-0.009308005683124
1.6151999999999989	0.0041199335828423	0.0090028205886483	-0.0175478775054216	0.0401312261819839	-0.0132753513753414	0.0083924597129225
1.6251999999999989	0.0141908880323171	0.0016784900799393	-0.0205996818840503	0.0111390836536884	0.0148012489080429	0.0102235423400998
1.6351999999999989	0.0126649858430027	-0.026092929765582	0.0032043922692537	0.0090028205886483	-0.0065613817423582	0.0163271501660347
1.6451999999999989	0.0025940313935279	-0.0270084701478481	-0.0062562013044953	-0.0022888556122779	-0.0160219743847847	-0.004425118677318
1.655199999999999	0.0059510162100195	-0.034332800656557	-0.0102235469967126	-0.0346379801630973	-0.0090028252452611	0.004730294458568
1.665199999999999	0.0141908880323171	-0.0080872839316725	0.0019836705178022	0.0004577683284878	-0.0163271557539701	-0.0032043969258666
1.675199999999999	0.0059510162100195	-0.0090028252452611	0.0068665575236082	0.0166323315352201	0.0022888509556651	0.0126649858430027
1.685199999999999	-0.0163271557539701	0.0025940313935279	-0.009308005683124	0.0202944967895746	-0.0184634178876876	-0.0187685992568731
1.695199999999999	0.0315861739218235	0.0108339032158255	0.009613181464374	0.0151064293459057	-0.0688181892037391	0.0074769183993339
1.705199999999999	-0.0364690646529197	0.0114442640915513	0.0077820988371968	0.0221255794167518	-0.0794995054602623	-0.2043182998895645
1.7151999999999987	0.0260929241776466	0.000152587890625	0.0050354748964309	0.0361638814210891	0.0221255794167518	0.0233463011682033
1.7251999999999987	0.0349431559443473	-0.0077821034938097	-0.0074769230559468	0.0193789564073085	0.0276188272982835	0.0300602708011865
1.7351999999999987	0.0041199335828423	-0.0297550950199365	-0.0215152241289615	0.0196841359138488	-0.0041199382394552	0.007171737961471
1.7451999999999988	0.0462348349392414	-0.0221255831420421	-0.0059510208666324	-0.03677424415946	-0.0120546296238899	0.0492866374552249
1.7551999999999988	-0.0016784947365522	-0.0733959004282951	0.0492866374552249	0.0398260429501533	-0.0224307645112276	0.0032043922692537
1.7651999999999988	0.0190737750381231	0.0663767457008361	-0.011749449186027	0.0331120751798152	-0.0328068993985652	-0.0099183665588498
1.7751999999999988	-0.0022888556122779	-0.0083924643695354	-0.030975816771388	-0.022735945880413	-0.0047302991151809	0.0108339032158255
1.7851999999999988	0.009613181464374	-0.0444037541747093	-0.0120546296238899	-0.0071717426180839	-0.0105287274345755	0.0068665575236082
1.7951999999999988	0.0343327969312667	-0.0181582383811473	-0.0013733142986893	0.0331120751798152	-0.0209048613905906	-0.0086976448073983
1.8051999999999988	0.0184634141623973	-0.022735945880413	0.0102235423400998	0.0028992118313908	-0.0123598100617527	0.0175478719174861
1.8151999999999988	0.0245670229196548	-0.0270084701478481	0.0141908880323171	-0.006866562180221	-0.0025940360501408	0.0392156839370727
1.8251999999999988	0.0178530532866716	-0.0065613817423582	-0.0138857122510671	-0.0318913571536541	-0.0074769230559468	0.0233463011682033
1.8351999999999988	0.0065613770857453	-0.0233463048934936	-0.0010681338608264	-0.0242618471384048	-0.004425118677318	0.0636301189661026
1.8451999999999988	-0.0019836751744151	-0.0312809981405735	-0.0028992164880037	0.028839549049735	0.0199893154203891	0.0410467684268951
1.8551999999999986	-0.0059510208666324	-0.0282291918992996	-0.0086976448073983	0.0148012489080429	0.0041199335828423	-0.026092929765582
1.8651999999999986	0.0221255794167518	-0.0041199382394552	-0.0028992164880037	-0.0144960731267929	-0.0297550950199365	0.0028992118313908
1.8751999999999986	0.0105287227779626	-0.0242618471384048	0.0077820988371968	-0.0209048613905906	-0.0331120789051055	-0.0401312299072742
1.8851999999999987	0.0108339032158255	-0.030975816771388	0.007171737961471	0.0596627742052078	-0.048065923154354	-0.0398260504007339
1.8951999999999987	0.0431830286979675	-0.0111390883103013	-0.0038147578015923	0.0440985709428787	0.0019836705178022	0.0196841359138488
1.9051999999999987	-0.0355535224080085	0.0102235423400998	-0.0007629534229636	-0.0181582383811473	-0.0065613817423582	-0.0129701709374785
1.9151999999999987	-0.0233463048934936	0.0154116097837686	0.0038147531449794	0.0151064293459057	-0.025177389383316	-0.0685130134224891
1.9251999999999987	-0.0016784947365522	-0.0157167948782444	-0.0221255831420421	0.01449606847018	-0.0376897864043712	-0.0181582383811473
